<?xml version="1.0" encoding="UTF-8" standalone="no"?>
<!DOCTYPE svg PUBLIC "-//W3C//DTD SVG 1.1//EN"
 "http://www.w3.org/Graphics/SVG/1.1/DTD/svg11.dtd">
<!-- Generated by graphviz version 2.43.0 (0)
 -->
<!-- Title: SMARTY Pages: 1 -->
<svg width="517pt" height="450pt"
 viewBox="0.00 0.00 517.00 450.00" xmlns="http://www.w3.org/2000/svg" xmlns:xlink="http://www.w3.org/1999/xlink">
<g id="graph0" class="graph" transform="scale(1 1) rotate(0) translate(4 446)">
<title>SMARTY</title>
<polygon fill="#0a0a0f" stroke="transparent" points="-4,4 -4,-446 513,-446 513,4 -4,4"/>
<g id="clust1" class="cluster">
<title>cluster_data</title>
<path fill="#0a0a0f" stroke="#2a2a3a" d="M20,-360C20,-360 394,-360 394,-360 400,-360 406,-366 406,-372 406,-372 406,-422 406,-422 406,-428 400,-434 394,-434 394,-434 20,-434 20,-434 14,-434 8,-428 8,-422 8,-422 8,-372 8,-372 8,-366 14,-360 20,-360"/>
<text text-anchor="middle" x="115.5" y="-419.6" font-family="Inter" font-size="13.00" fill="#a29bfe">Layer 1 — Data Orchestration</text>
</g>
<g id="clust2" class="cluster">
<title>cluster_ai</title>
<path fill="#0a0a0f" stroke="#2a2a3a" d="M53,-267C53,-267 435,-267 435,-267 441,-267 447,-273 447,-279 447,-279 447,-329 447,-329 447,-335 441,-341 435,-341 435,-341 53,-341 53,-341 47,-341 41,-335 41,-329 41,-329 41,-279 41,-279 41,-273 47,-267 53,-267"/>
<text text-anchor="middle" x="116" y="-326.6" font-family="Inter" font-size="13.00" fill="#a29bfe">Layer 2 — AI Engine</text>
</g>
<g id="clust3" class="cluster">
<title>cluster_cx</title>
<path fill="#0a0a0f" stroke="#2a2a3a" d="M75,-174C75,-174 398,-174 398,-174 404,-174 410,-180 410,-186 410,-186 410,-236 410,-236 410,-242 404,-248 398,-248 398,-248 75,-248 75,-248 69,-248 63,-242 63,-236 63,-236 63,-186 63,-186 63,-180 69,-174 75,-174"/>
<text text-anchor="middle" x="173" y="-233.6" font-family="Inter" font-size="13.00" fill="#a29bfe">Layer 3 — Experience Delivery</text>
</g>
<g id="clust4" class="cluster">
<title>cluster_measure</title>
<path fill="#0a0a0f" stroke="#2a2a3a" d="M163,-8C163,-8 422,-8 422,-8 428,-8 434,-14 434,-20 434,-20 434,-143 434,-143 434,-149 428,-155 422,-155 422,-155 163,-155 163,-155 157,-155 151,-149 151,-143 151,-143 151,-20 151,-20 151,-14 157,-8 163,-8"/>
<text text-anchor="middle" x="292.5" y="-140.6" font-family="Inter" font-size="13.00" fill="#00cec9">Layer 4 — Measurement &amp; Optimization</text>
</g>
<!-- CDP -->
<g id="node1" class="node">
<title>CDP</title>
<path fill="#1a1a26" stroke="#2a2a3a" d="M386,-404C386,-404 282,-404 282,-404 276,-404 270,-398 270,-392 270,-392 270,-380 270,-380 270,-374 276,-368 282,-368 282,-368 386,-368 386,-368 392,-368 398,-374 398,-380 398,-380 398,-392 398,-392 398,-398 392,-404 386,-404"/>
<text text-anchor="middle" x="334" y="-389.2" font-family="Inter" font-size="11.00" fill="#f0f0f5">CDP</text>
<text text-anchor="middle" x="334" y="-377.2" font-family="Inter" font-size="11.00" fill="#f0f0f5">(Adobe / Salesforce)</text>
</g>
<!-- LLM -->
<g id="node4" class="node">
<title>LLM</title>
<path fill="#1a1a26" stroke="#2a2a3a" d="M427,-311C427,-311 365,-311 365,-311 359,-311 353,-305 353,-299 353,-299 353,-287 353,-287 353,-281 359,-275 365,-275 365,-275 427,-275 427,-275 433,-275 439,-281 439,-287 439,-287 439,-299 439,-299 439,-305 433,-311 427,-311"/>
<text text-anchor="middle" x="396" y="-296.2" font-family="Inter" font-size="11.00" fill="#f0f0f5">LLM Content</text>
<text text-anchor="middle" x="396" y="-284.2" font-family="Inter" font-size="11.00" fill="#f0f0f5">Pipelines</text>
</g>
<!-- CDP&#45;&gt;LLM -->
<g id="edge1" class="edge">
<title>CDP&#45;&gt;LLM</title>
<path fill="none" stroke="#6c5ce7" d="M345.66,-367.88C354.93,-354.28 368.03,-335.05 378.55,-319.62"/>
<polygon fill="#6c5ce7" stroke="#6c5ce7" points="381.65,-321.27 384.39,-311.04 375.87,-317.33 381.65,-321.27"/>
</g>
<!-- Predict -->
<g id="node5" class="node">
<title>Predict</title>
<path fill="#1a1a26" stroke="#2a2a3a" d="M322.5,-311C322.5,-311 275.5,-311 275.5,-311 269.5,-311 263.5,-305 263.5,-299 263.5,-299 263.5,-287 263.5,-287 263.5,-281 269.5,-275 275.5,-275 275.5,-275 322.5,-275 322.5,-275 328.5,-275 334.5,-281 334.5,-287 334.5,-287 334.5,-299 334.5,-299 334.5,-305 328.5,-311 322.5,-311"/>
<text text-anchor="middle" x="299" y="-296.2" font-family="Inter" font-size="11.00" fill="#f0f0f5">Predictive</text>
<text text-anchor="middle" x="299" y="-284.2" font-family="Inter" font-size="11.00" fill="#f0f0f5">Analytics</text>
</g>
<!-- CDP&#45;&gt;Predict -->
<g id="edge2" class="edge">
<title>CDP&#45;&gt;Predict</title>
<path fill="none" stroke="#6c5ce7" d="M327.42,-367.88C322.28,-354.54 315.06,-335.77 309.19,-320.49"/>
<polygon fill="#6c5ce7" stroke="#6c5ce7" points="312.41,-319.12 305.55,-311.04 305.88,-321.63 312.41,-319.12"/>
</g>
<!-- Events -->
<g id="node2" class="node">
<title>Events</title>
<path fill="#1a1a26" stroke="#2a2a3a" d="M147.5,-404C147.5,-404 28.5,-404 28.5,-404 22.5,-404 16.5,-398 16.5,-392 16.5,-392 16.5,-380 16.5,-380 16.5,-374 22.5,-368 28.5,-368 28.5,-368 147.5,-368 147.5,-368 153.5,-368 159.5,-374 159.5,-380 159.5,-380 159.5,-392 159.5,-392 159.5,-398 153.5,-404 147.5,-404"/>
<text text-anchor="middle" x="88" y="-389.2" font-family="Inter" font-size="11.00" fill="#f0f0f5">Event Streaming</text>
<text text-anchor="middle" x="88" y="-377.2" font-family="Inter" font-size="11.00" fill="#f0f0f5">(Kinesis / EventBridge)</text>
</g>
<!-- ABTest -->
<g id="node6" class="node">
<title>ABTest</title>
<path fill="#1a1a26" stroke="#2a2a3a" d="M114.5,-311C114.5,-311 61.5,-311 61.5,-311 55.5,-311 49.5,-305 49.5,-299 49.5,-299 49.5,-287 49.5,-287 49.5,-281 55.5,-275 61.5,-275 61.5,-275 114.5,-275 114.5,-275 120.5,-275 126.5,-281 126.5,-287 126.5,-287 126.5,-299 126.5,-299 126.5,-305 120.5,-311 114.5,-311"/>
<text text-anchor="middle" x="88" y="-296.2" font-family="Inter" font-size="11.00" fill="#f0f0f5">Automated</text>
<text text-anchor="middle" x="88" y="-284.2" font-family="Inter" font-size="11.00" fill="#f0f0f5">A/B Testing</text>
</g>
<!-- Events&#45;&gt;ABTest -->
<g id="edge3" class="edge">
<title>Events&#45;&gt;ABTest</title>
<path fill="none" stroke="#6c5ce7" d="M88,-367.88C88,-354.79 88,-336.48 88,-321.36"/>
<polygon fill="#6c5ce7" stroke="#6c5ce7" points="91.5,-321.04 88,-311.04 84.5,-321.04 91.5,-321.04"/>
</g>
<!-- Identity -->
<g id="node3" class="node">
<title>Identity</title>
<path fill="#1a1a26" stroke="#2a2a3a" d="M240,-404C240,-404 190,-404 190,-404 184,-404 178,-398 178,-392 178,-392 178,-380 178,-380 178,-374 184,-368 190,-368 190,-368 240,-368 240,-368 246,-368 252,-374 252,-380 252,-380 252,-392 252,-392 252,-398 246,-404 240,-404"/>
<text text-anchor="middle" x="215" y="-389.2" font-family="Inter" font-size="11.00" fill="#f0f0f5">Identity</text>
<text text-anchor="middle" x="215" y="-377.2" font-family="Inter" font-size="11.00" fill="#f0f0f5">Resolution</text>
</g>
<!-- Personalize -->
<g id="node7" class="node">
<title>Personalize</title>
<path fill="#1a1a26" stroke="#2a2a3a" d="M233,-311C233,-311 157,-311 157,-311 151,-311 145,-305 145,-299 145,-299 145,-287 145,-287 145,-281 151,-275 157,-275 157,-275 233,-275 233,-275 239,-275 245,-281 245,-287 245,-287 245,-299 245,-299 245,-305 239,-311 233,-311"/>
<text text-anchor="middle" x="195" y="-296.2" font-family="Inter" font-size="11.00" fill="#f0f0f5">Personalization</text>
<text text-anchor="middle" x="195" y="-284.2" font-family="Inter" font-size="11.00" fill="#f0f0f5">Engine</text>
</g>
<!-- Identity&#45;&gt;Personalize -->
<g id="edge4" class="edge">
<title>Identity&#45;&gt;Personalize</title>
<path fill="none" stroke="#6c5ce7" d="M211.24,-367.88C208.33,-354.66 204.26,-336.12 200.92,-320.92"/>
<polygon fill="#6c5ce7" stroke="#6c5ce7" points="204.31,-320.06 198.74,-311.04 197.47,-321.56 204.31,-320.06"/>
</g>
<!-- CMS -->
<g id="node8" class="node">
<title>CMS</title>
<path fill="#1a1a26" stroke="#2a2a3a" d="M389.5,-218C389.5,-218 318.5,-218 318.5,-218 312.5,-218 306.5,-212 306.5,-206 306.5,-206 306.5,-194 306.5,-194 306.5,-188 312.5,-182 318.5,-182 318.5,-182 389.5,-182 389.5,-182 395.5,-182 401.5,-188 401.5,-194 401.5,-194 401.5,-206 401.5,-206 401.5,-212 395.5,-218 389.5,-218"/>
<text text-anchor="middle" x="354" y="-203.2" font-family="Inter" font-size="11.00" fill="#f0f0f5">Headless CMS</text>
<text text-anchor="middle" x="354" y="-191.2" font-family="Inter" font-size="11.00" fill="#f0f0f5">(AEM)</text>
</g>
<!-- LLM&#45;&gt;CMS -->
<g id="edge5" class="edge">
<title>LLM&#45;&gt;CMS</title>
<path fill="none" stroke="#6c5ce7" d="M388.1,-274.88C381.94,-261.54 373.28,-242.77 366.22,-227.49"/>
<polygon fill="#6c5ce7" stroke="#6c5ce7" points="369.23,-225.65 361.86,-218.04 362.88,-228.59 369.23,-225.65"/>
</g>
<!-- MarAuto -->
<g id="node10" class="node">
<title>MarAuto</title>
<path fill="#1a1a26" stroke="#2a2a3a" d="M276.5,-218C276.5,-218 177.5,-218 177.5,-218 171.5,-218 165.5,-212 165.5,-206 165.5,-206 165.5,-194 165.5,-194 165.5,-188 171.5,-182 177.5,-182 177.5,-182 276.5,-182 276.5,-182 282.5,-182 288.5,-188 288.5,-194 288.5,-194 288.5,-206 288.5,-206 288.5,-212 282.5,-218 276.5,-218"/>
<text text-anchor="middle" x="227" y="-203.2" font-family="Inter" font-size="11.00" fill="#f0f0f5">Marketing</text>
<text text-anchor="middle" x="227" y="-191.2" font-family="Inter" font-size="11.00" fill="#f0f0f5">Automation (SFMC)</text>
</g>
<!-- Predict&#45;&gt;MarAuto -->
<g id="edge6" class="edge">
<title>Predict&#45;&gt;MarAuto</title>
<path fill="none" stroke="#6c5ce7" d="M285.46,-274.88C274.6,-261.16 259.19,-241.69 246.93,-226.18"/>
<polygon fill="#6c5ce7" stroke="#6c5ce7" points="249.43,-223.71 240.48,-218.04 243.94,-228.05 249.43,-223.71"/>
</g>
<!-- Commerce -->
<g id="node9" class="node">
<title>Commerce</title>
<path fill="#1a1a26" stroke="#2a2a3a" d="M135,-218C135,-218 83,-218 83,-218 77,-218 71,-212 71,-206 71,-206 71,-194 71,-194 71,-188 77,-182 83,-182 83,-182 135,-182 135,-182 141,-182 147,-188 147,-194 147,-194 147,-206 147,-206 147,-212 141,-218 135,-218"/>
<text text-anchor="middle" x="109" y="-203.2" font-family="Inter" font-size="11.00" fill="#f0f0f5">Commerce</text>
<text text-anchor="middle" x="109" y="-191.2" font-family="Inter" font-size="11.00" fill="#f0f0f5">Platform</text>
</g>
<!-- ABTest&#45;&gt;Commerce -->
<g id="edge7" class="edge">
<title>ABTest&#45;&gt;Commerce</title>
<path fill="none" stroke="#6c5ce7" d="M91.95,-274.88C95,-261.66 99.28,-243.12 102.79,-227.92"/>
<polygon fill="#6c5ce7" stroke="#6c5ce7" points="106.23,-228.57 105.07,-218.04 99.41,-227 106.23,-228.57"/>
</g>
<!-- Personalize&#45;&gt;CMS -->
<g id="edge8" class="edge">
<title>Personalize&#45;&gt;CMS</title>
<path fill="none" stroke="#6c5ce7" d="M235.76,-274.91C263.25,-263.34 295.04,-249.82 298,-248 308.71,-241.42 319.51,-232.9 328.73,-224.93"/>
<polygon fill="#6c5ce7" stroke="#6c5ce7" points="331.23,-227.38 336.38,-218.12 326.58,-222.15 331.23,-227.38"/>
</g>
<!-- Personalize&#45;&gt;MarAuto -->
<g id="edge9" class="edge">
<title>Personalize&#45;&gt;MarAuto</title>
<path fill="none" stroke="#6c5ce7" d="M201.02,-274.88C205.71,-261.54 212.31,-242.77 217.69,-227.49"/>
<polygon fill="#6c5ce7" stroke="#6c5ce7" points="220.99,-228.63 221.01,-218.04 214.39,-226.31 220.99,-228.63"/>
</g>
<!-- Attribution -->
<g id="node11" class="node">
<title>Attribution</title>
<path fill="#1a1a26" stroke="#2a2a3a" d="M379.5,-125C379.5,-125 328.5,-125 328.5,-125 322.5,-125 316.5,-119 316.5,-113 316.5,-113 316.5,-101 316.5,-101 316.5,-95 322.5,-89 328.5,-89 328.5,-89 379.5,-89 379.5,-89 385.5,-89 391.5,-95 391.5,-101 391.5,-101 391.5,-113 391.5,-113 391.5,-119 385.5,-125 379.5,-125"/>
<text text-anchor="middle" x="354" y="-110.2" font-family="Inter" font-size="11.00" fill="#f0f0f5">Attribution</text>
<text text-anchor="middle" x="354" y="-98.2" font-family="Inter" font-size="11.00" fill="#f0f0f5">Modeling</text>
</g>
<!-- CMS&#45;&gt;Attribution -->
<g id="edge10" class="edge">
<title>CMS&#45;&gt;Attribution</title>
<path fill="none" stroke="#6c5ce7" d="M354,-181.88C354,-168.79 354,-150.48 354,-135.36"/>
<polygon fill="#6c5ce7" stroke="#6c5ce7" points="357.5,-135.04 354,-125.04 350.5,-135.04 357.5,-135.04"/>
</g>
<!-- Dashboards -->
<g id="node12" class="node">
<title>Dashboards</title>
<path fill="#1a1a26" stroke="#2a2a3a" d="M256,-125C256,-125 198,-125 198,-125 192,-125 186,-119 186,-113 186,-113 186,-101 186,-101 186,-95 192,-89 198,-89 198,-89 256,-89 256,-89 262,-89 268,-95 268,-101 268,-101 268,-113 268,-113 268,-119 262,-125 256,-125"/>
<text text-anchor="middle" x="227" y="-110.2" font-family="Inter" font-size="11.00" fill="#f0f0f5">Real&#45;Time</text>
<text text-anchor="middle" x="227" y="-98.2" font-family="Inter" font-size="11.00" fill="#f0f0f5">Dashboards</text>
</g>
<!-- Commerce&#45;&gt;Dashboards -->
<g id="edge11" class="edge">
<title>Commerce&#45;&gt;Dashboards</title>
<path fill="none" stroke="#6c5ce7" d="M131.19,-181.88C149.74,-167.58 176.35,-147.06 196.83,-131.27"/>
<polygon fill="#6c5ce7" stroke="#6c5ce7" points="199.12,-133.92 204.9,-125.04 194.85,-128.37 199.12,-133.92"/>
</g>
<!-- MarAuto&#45;&gt;Dashboards -->
<g id="edge12" class="edge">
<title>MarAuto&#45;&gt;Dashboards</title>
<path fill="none" stroke="#6c5ce7" d="M227,-181.88C227,-168.79 227,-150.48 227,-135.36"/>
<polygon fill="#6c5ce7" stroke="#6c5ce7" points="230.5,-135.04 227,-125.04 223.5,-135.04 230.5,-135.04"/>
</g>
<!-- Optimize -->
<g id="node13" class="node">
<title>Optimize</title>
<path fill="#1a1a26" stroke="#2a2a3a" d="M385.5,-52C385.5,-52 322.5,-52 322.5,-52 316.5,-52 310.5,-46 310.5,-40 310.5,-40 310.5,-28 310.5,-28 310.5,-22 316.5,-16 322.5,-16 322.5,-16 385.5,-16 385.5,-16 391.5,-16 397.5,-22 397.5,-28 397.5,-28 397.5,-40 397.5,-40 397.5,-46 391.5,-52 385.5,-52"/>
<text text-anchor="middle" x="354" y="-37.2" font-family="Inter" font-size="11.00" fill="#f0f0f5">Optimization</text>
<text text-anchor="middle" x="354" y="-25.2" font-family="Inter" font-size="11.00" fill="#f0f0f5">Loops</text>
</g>
<!-- Attribution&#45;&gt;Optimize -->
<g id="edge14" class="edge">
<title>Attribution&#45;&gt;Optimize</title>
<path fill="none" stroke="#6c5ce7" d="M354,-88.81C354,-80.79 354,-71.05 354,-62.07"/>
<polygon fill="#6c5ce7" stroke="#6c5ce7" points="357.5,-62.03 354,-52.03 350.5,-62.03 357.5,-62.03"/>
</g>
<!-- Dashboards&#45;&gt;Optimize -->
<g id="edge15" class="edge">
<title>Dashboards&#45;&gt;Optimize</title>
<path fill="none" stroke="#6c5ce7" d="M257.42,-88.99C274.57,-79.4 296.19,-67.32 314.63,-57.01"/>
<polygon fill="#6c5ce7" stroke="#6c5ce7" points="316.37,-60.05 323.39,-52.11 312.95,-53.94 316.37,-60.05"/>
</g>
<!-- Optimize&#45;&gt;CDP -->
<g id="edge13" class="edge">
<title>Optimize&#45;&gt;CDP</title>
<path fill="none" stroke="#00cec9" stroke-dasharray="5,2" d="M397.69,-44.03C429.49,-53.46 467,-71.83 467,-106 467,-294 467,-294 467,-294 467,-316.07 466.35,-325.15 451,-341 439.13,-353.25 423.53,-362.12 407.6,-368.54"/>
<polygon fill="#00cec9" stroke="#00cec9" points="406.35,-365.27 398.21,-372.04 408.8,-371.83 406.35,-365.27"/>
<text text-anchor="middle" x="488" y="-197.8" font-family="Inter" font-size="9.00" fill="#9898a8">feedback</text>
</g>
</g>
</svg>
